<svg width="48" height="48" viewBox="0 0 48 48" fill="none" xmlns="http://www.w3.org/2000/svg">
  <defs>
    <linearGradient id="goldGrad4" x1="0%" y1="0%" x2="100%" y2="100%">
      <stop offset="0%" style="stop-color:#F7E9A9;stop-opacity:1" />
      <stop offset="100%" style="stop-color:#D4AF37;stop-opacity:1" />
    </linearGradient>
  </defs>
  <!-- Headset band -->
  <path d="M16 20 C16 16.686 18.686 14 22 14 L26 14 C29.314 14 32 16.686 32 20" stroke="url(#goldGrad4)" stroke-width="2" fill="none" stroke-linecap="round"/>
  <!-- Left earcup -->
  <ellipse cx="14" cy="24" rx="5" ry="7" stroke="url(#goldGrad4)" stroke-width="2" fill="none"/>
  <!-- Right earcup -->
  <ellipse cx="34" cy="24" rx="5" ry="7" stroke="url(#goldGrad4)" stroke-width="2" fill="none"/>
  <!-- Chat bubble -->
  <path d="M28 32 C28 34.209 26.209 36 24 36 L20 36 C17.791 36 16 34.209 16 32 L16 28 C16 25.791 17.791 24 20 24 L24 24 C26.209 24 28 25.791 28 28 Z" stroke="url(#goldGrad4)" stroke-width="2" fill="none" stroke-linecap="round" stroke-linejoin="round"/>
  <!-- Chat dots -->
  <circle cx="20" cy="30" r="1.5" fill="#D4AF37"/>
  <circle cx="24" cy="30" r="1.5" fill="#D4AF37"/>
  <circle cx="28" cy="30" r="1.5" fill="#D4AF37"/>
</svg>
