<svg width="48" height="48" viewBox="0 0 48 48" fill="none" xmlns="http://www.w3.org/2000/svg">
  <defs>
    <linearGradient id="goldGrad3" x1="0%" y1="0%" x2="100%" y2="100%">
      <stop offset="0%" style="stop-color:#F7E9A9;stop-opacity:1" />
      <stop offset="100%" style="stop-color:#D4AF37;stop-opacity:1" />
    </linearGradient>
  </defs>
  <!-- Sparkle/Star above -->
  <path d="M24 6 L24.8 9.5 L28.5 9.5 L25.5 11.5 L26.3 15 L24 13 L21.7 15 L22.5 11.5 L19.5 9.5 L23.2 9.5 Z" stroke="#D4AF37" stroke-width="1.5" fill="none" stroke-linejoin="round"/>
  <!-- Crown base -->
  <path d="M10 24 L14 20 L18 24 L22 20 L26 24 L30 20 L34 24" stroke="url(#goldGrad3)" stroke-width="2" fill="none" stroke-linecap="round" stroke-linejoin="round"/>
  <path d="M10 24 L10 32 L34 32 L34 24" stroke="url(#goldGrad3)" stroke-width="2" fill="none" stroke-linecap="round"/>
  <!-- Crown peaks -->
  <path d="M14 20 L14 24 M18 24 L18 28 M22 20 L22 24 M26 24 L26 28 M30 20 L30 24" stroke="url(#goldGrad3)" stroke-width="2" stroke-linecap="round"/>
  <!-- Decorative accent lines -->
  <line x1="18" y1="24" x2="18" y2="32" stroke="#D4AF37" stroke-width="1" opacity="0.5"/>
  <line x1="24" y1="20" x2="24" y2="32" stroke="#D4AF37" stroke-width="1" opacity="0.5"/>
  <line x1="30" y1="24" x2="30" y2="32" stroke="#D4AF37" stroke-width="1" opacity="0.5"/>
</svg>
